<svg id="visual" viewBox="0 0 1900 1200" width="1900" height="1200" xmlns="http://www.w3.org/2000/svg" xmlns:xlink="http://www.w3.org/1999/xlink" version="1.1"><rect x="0" y="0" width="1900" height="1200" fill="#e6eaec"></rect><path d="M0 622L17.7 631.2C35.3 640.3 70.7 658.7 105.8 678.5C141 698.3 176 719.7 211.2 711C246.3 702.3 281.7 663.7 316.8 642.8C352 622 387 619 422.2 602.3C457.3 585.7 492.7 555.3 527.8 557.5C563 559.7 598 594.3 633.2 599.5C668.3 604.7 703.7 580.3 738.8 583.7C774 587 809 618 844.2 637.5C879.3 657 914.7 665 950 680.3C985.3 695.7 1020.7 718.3 1055.8 712.3C1091 706.3 1126 671.7 1161.2 663.3C1196.3 655 1231.7 673 1266.8 663.2C1302 653.3 1337 615.7 1372.2 625.7C1407.3 635.7 1442.7 693.3 1477.8 696C1513 698.7 1548 646.3 1583.2 614.8C1618.3 583.3 1653.7 572.7 1688.8 562.5C1724 552.3 1759 542.7 1794.2 562.5C1829.3 582.3 1864.7 631.7 1882.3 656.3L1900 681L1900 0L1882.3 0C1864.7 0 1829.3 0 1794.2 0C1759 0 1724 0 1688.8 0C1653.7 0 1618.3 0 1583.2 0C1548 0 1513 0 1477.8 0C1442.7 0 1407.3 0 1372.2 0C1337 0 1302 0 1266.8 0C1231.7 0 1196.3 0 1161.2 0C1126 0 1091 0 1055.8 0C1020.7 0 985.3 0 950 0C914.7 0 879.3 0 844.2 0C809 0 774 0 738.8 0C703.7 0 668.3 0 633.2 0C598 0 563 0 527.8 0C492.7 0 457.3 0 422.2 0C387 0 352 0 316.8 0C281.7 0 246.3 0 211.2 0C176 0 141 0 105.8 0C70.7 0 35.3 0 17.7 0L0 0Z" fill="#fa7268"></path><path d="M0 666L17.7 664.7C35.3 663.3 70.7 660.7 105.8 647.5C141 634.3 176 610.7 211.2 611.8C246.3 613 281.7 639 316.8 659.8C352 680.7 387 696.3 422.2 699.8C457.3 703.3 492.7 694.7 527.8 690.2C563 685.7 598 685.3 633.2 659C668.3 632.7 703.7 580.3 738.8 547C774 513.7 809 499.3 844.2 505.3C879.3 511.3 914.7 537.7 950 546.3C985.3 555 1020.7 546 1055.8 567.5C1091 589 1126 641 1161.2 639.2C1196.3 637.3 1231.7 581.7 1266.8 577.2C1302 572.7 1337 619.3 1372.2 646.3C1407.3 673.3 1442.7 680.7 1477.8 668.2C1513 655.7 1548 623.3 1583.2 613.8C1618.3 604.3 1653.7 617.7 1688.8 600.3C1724 583 1759 535 1794.2 514.3C1829.3 493.7 1864.7 500.3 1882.3 503.7L1900 507L1900 0L1882.3 0C1864.7 0 1829.3 0 1794.2 0C1759 0 1724 0 1688.8 0C1653.7 0 1618.3 0 1583.2 0C1548 0 1513 0 1477.8 0C1442.7 0 1407.3 0 1372.2 0C1337 0 1302 0 1266.8 0C1231.7 0 1196.3 0 1161.2 0C1126 0 1091 0 1055.8 0C1020.7 0 985.3 0 950 0C914.7 0 879.3 0 844.2 0C809 0 774 0 738.8 0C703.7 0 668.3 0 633.2 0C598 0 563 0 527.8 0C492.7 0 457.3 0 422.2 0C387 0 352 0 316.8 0C281.7 0 246.3 0 211.2 0C176 0 141 0 105.8 0C70.7 0 35.3 0 17.7 0L0 0Z" fill="#f46767"></path><path d="M0 577L17.7 581C35.3 585 70.7 593 105.8 590.5C141 588 176 575 211.2 543.7C246.3 512.3 281.7 462.7 316.8 459C352 455.3 387 497.7 422.2 531C457.3 564.3 492.7 588.7 527.8 575.8C563 563 598 513 633.2 493.8C668.3 474.7 703.7 486.3 738.8 484.5C774 482.7 809 467.3 844.2 477C879.3 486.7 914.7 521.3 950 532.8C985.3 544.3 1020.7 532.7 1055.8 533.2C1091 533.7 1126 546.3 1161.2 559.3C1196.3 572.3 1231.7 585.7 1266.8 561C1302 536.3 1337 473.7 1372.2 444.8C1407.3 416 1442.7 421 1477.8 423.3C1513 425.7 1548 425.3 1583.2 448.7C1618.3 472 1653.7 519 1688.8 551.7C1724 584.3 1759 602.7 1794.2 598C1829.3 593.3 1864.7 565.7 1882.3 551.8L1900 538L1900 0L1882.3 0C1864.7 0 1829.3 0 1794.2 0C1759 0 1724 0 1688.8 0C1653.7 0 1618.3 0 1583.2 0C1548 0 1513 0 1477.8 0C1442.7 0 1407.3 0 1372.2 0C1337 0 1302 0 1266.8 0C1231.7 0 1196.3 0 1161.2 0C1126 0 1091 0 1055.8 0C1020.7 0 985.3 0 950 0C914.7 0 879.3 0 844.2 0C809 0 774 0 738.8 0C703.7 0 668.3 0 633.2 0C598 0 563 0 527.8 0C492.7 0 457.3 0 422.2 0C387 0 352 0 316.8 0C281.7 0 246.3 0 211.2 0C176 0 141 0 105.8 0C70.7 0 35.3 0 17.7 0L0 0Z" fill="#ee5c67"></path><path d="M0 474L17.7 479.8C35.3 485.7 70.7 497.3 105.8 472.3C141 447.3 176 385.7 211.2 357.8C246.3 330 281.7 336 316.8 354.7C352 373.3 387 404.7 422.2 403.5C457.3 402.3 492.7 368.7 527.8 359.2C563 349.7 598 364.3 633.2 376.2C668.3 388 703.7 397 738.8 419.2C774 441.3 809 476.7 844.2 466.7C879.3 456.7 914.7 401.3 950 392C985.3 382.7 1020.7 419.3 1055.8 429.2C1091 439 1126 422 1161.2 411.8C1196.3 401.7 1231.7 398.3 1266.8 388.7C1302 379 1337 363 1372.2 359.7C1407.3 356.3 1442.7 365.7 1477.8 393.7C1513 421.7 1548 468.3 1583.2 486.2C1618.3 504 1653.7 493 1688.8 478.5C1724 464 1759 446 1794.2 430.7C1829.3 415.3 1864.7 402.7 1882.3 396.3L1900 390L1900 0L1882.3 0C1864.7 0 1829.3 0 1794.2 0C1759 0 1724 0 1688.8 0C1653.7 0 1618.3 0 1583.2 0C1548 0 1513 0 1477.8 0C1442.7 0 1407.3 0 1372.2 0C1337 0 1302 0 1266.8 0C1231.7 0 1196.3 0 1161.2 0C1126 0 1091 0 1055.8 0C1020.7 0 985.3 0 950 0C914.7 0 879.3 0 844.2 0C809 0 774 0 738.8 0C703.7 0 668.3 0 633.2 0C598 0 563 0 527.8 0C492.7 0 457.3 0 422.2 0C387 0 352 0 316.8 0C281.7 0 246.3 0 211.2 0C176 0 141 0 105.8 0C70.7 0 35.3 0 17.7 0L0 0Z" fill="#e75167"></path><path d="M0 305L17.7 317C35.3 329 70.7 353 105.8 354.3C141 355.7 176 334.3 211.2 319C246.3 303.7 281.7 294.3 316.8 285C352 275.7 387 266.3 422.2 279C457.3 291.7 492.7 326.3 527.8 336.2C563 346 598 331 633.2 317.7C668.3 304.3 703.7 292.7 738.8 299.5C774 306.3 809 331.7 844.2 328.2C879.3 324.7 914.7 292.3 950 302.3C985.3 312.3 1020.7 364.7 1055.8 388.2C1091 411.7 1126 406.3 1161.2 405C1196.3 403.7 1231.7 406.3 1266.8 400.2C1302 394 1337 379 1372.2 360C1407.3 341 1442.7 318 1477.8 305.8C1513 293.7 1548 292.3 1583.2 292.2C1618.3 292 1653.7 293 1688.8 292.5C1724 292 1759 290 1794.2 294.2C1829.3 298.3 1864.7 308.7 1882.3 313.8L1900 319L1900 0L1882.3 0C1864.7 0 1829.3 0 1794.2 0C1759 0 1724 0 1688.8 0C1653.7 0 1618.3 0 1583.2 0C1548 0 1513 0 1477.8 0C1442.7 0 1407.3 0 1372.2 0C1337 0 1302 0 1266.8 0C1231.7 0 1196.3 0 1161.2 0C1126 0 1091 0 1055.8 0C1020.7 0 985.3 0 950 0C914.7 0 879.3 0 844.2 0C809 0 774 0 738.8 0C703.7 0 668.3 0 633.2 0C598 0 563 0 527.8 0C492.7 0 457.3 0 422.2 0C387 0 352 0 316.8 0C281.7 0 246.3 0 211.2 0C176 0 141 0 105.8 0C70.7 0 35.3 0 17.7 0L0 0Z" fill="#df4667"></path><path d="M0 234L17.7 240C35.3 246 70.7 258 105.8 258.3C141 258.7 176 247.3 211.2 255C246.3 262.7 281.7 289.3 316.8 303.8C352 318.3 387 320.7 422.2 304.7C457.3 288.7 492.7 254.3 527.8 250.2C563 246 598 272 633.2 285.2C668.3 298.3 703.7 298.7 738.8 296.3C774 294 809 289 844.2 285.5C879.3 282 914.7 280 950 287.8C985.3 295.7 1020.7 313.3 1055.8 306.8C1091 300.3 1126 269.7 1161.2 271.3C1196.3 273 1231.7 307 1266.8 303.8C1302 300.7 1337 260.3 1372.2 251.7C1407.3 243 1442.7 266 1477.8 282.5C1513 299 1548 309 1583.2 302.8C1618.3 296.7 1653.7 274.3 1688.8 277.3C1724 280.3 1759 308.7 1794.2 314C1829.3 319.3 1864.7 301.7 1882.3 292.8L1900 284L1900 0L1882.3 0C1864.7 0 1829.3 0 1794.2 0C1759 0 1724 0 1688.8 0C1653.7 0 1618.3 0 1583.2 0C1548 0 1513 0 1477.8 0C1442.7 0 1407.3 0 1372.2 0C1337 0 1302 0 1266.8 0C1231.7 0 1196.3 0 1161.2 0C1126 0 1091 0 1055.8 0C1020.7 0 985.3 0 950 0C914.7 0 879.3 0 844.2 0C809 0 774 0 738.8 0C703.7 0 668.3 0 633.2 0C598 0 563 0 527.8 0C492.7 0 457.3 0 422.2 0C387 0 352 0 316.8 0C281.7 0 246.3 0 211.2 0C176 0 141 0 105.8 0C70.7 0 35.3 0 17.7 0L0 0Z" fill="#d73b67"></path><path d="M0 148L17.7 149C35.3 150 70.7 152 105.8 157.3C141 162.7 176 171.3 211.2 184C246.3 196.7 281.7 213.3 316.8 218.3C352 223.3 387 216.7 422.2 214.7C457.3 212.7 492.7 215.3 527.8 215.2C563 215 598 212 633.2 200.5C668.3 189 703.7 169 738.8 162.3C774 155.7 809 162.3 844.2 170.7C879.3 179 914.7 189 950 190.7C985.3 192.3 1020.7 185.7 1055.8 174.2C1091 162.7 1126 146.3 1161.2 151.3C1196.3 156.3 1231.7 182.7 1266.8 187.3C1302 192 1337 175 1372.2 173C1407.3 171 1442.7 184 1477.8 185.8C1513 187.7 1548 178.3 1583.2 169.2C1618.3 160 1653.7 151 1688.8 157.7C1724 164.3 1759 186.7 1794.2 197.2C1829.3 207.7 1864.7 206.3 1882.3 205.7L1900 205L1900 0L1882.3 0C1864.7 0 1829.3 0 1794.2 0C1759 0 1724 0 1688.8 0C1653.7 0 1618.3 0 1583.2 0C1548 0 1513 0 1477.8 0C1442.7 0 1407.3 0 1372.2 0C1337 0 1302 0 1266.8 0C1231.7 0 1196.3 0 1161.2 0C1126 0 1091 0 1055.8 0C1020.7 0 985.3 0 950 0C914.7 0 879.3 0 844.2 0C809 0 774 0 738.8 0C703.7 0 668.3 0 633.2 0C598 0 563 0 527.8 0C492.7 0 457.3 0 422.2 0C387 0 352 0 316.8 0C281.7 0 246.3 0 211.2 0C176 0 141 0 105.8 0C70.7 0 35.3 0 17.7 0L0 0Z" fill="#cf3068"></path><path d="M0 92L17.7 97.7C35.3 103.3 70.7 114.7 105.8 119.7C141 124.7 176 123.3 211.2 116C246.3 108.7 281.7 95.3 316.8 95.8C352 96.3 387 110.7 422.2 118.3C457.3 126 492.7 127 527.8 124.7C563 122.3 598 116.7 633.2 113.5C668.3 110.3 703.7 109.7 738.8 106.7C774 103.7 809 98.3 844.2 104.3C879.3 110.3 914.7 127.7 950 129.3C985.3 131 1020.7 117 1055.8 104.7C1091 92.3 1126 81.7 1161.2 86.3C1196.3 91 1231.7 111 1266.8 111.3C1302 111.7 1337 92.3 1372.2 92.5C1407.3 92.7 1442.7 112.3 1477.8 120.2C1513 128 1548 124 1583.2 113.2C1618.3 102.3 1653.7 84.7 1688.8 90.8C1724 97 1759 127 1794.2 139C1829.3 151 1864.7 145 1882.3 142L1900 139L1900 0L1882.3 0C1864.7 0 1829.3 0 1794.2 0C1759 0 1724 0 1688.8 0C1653.7 0 1618.3 0 1583.2 0C1548 0 1513 0 1477.8 0C1442.7 0 1407.3 0 1372.2 0C1337 0 1302 0 1266.8 0C1231.7 0 1196.3 0 1161.2 0C1126 0 1091 0 1055.8 0C1020.7 0 985.3 0 950 0C914.7 0 879.3 0 844.2 0C809 0 774 0 738.8 0C703.7 0 668.3 0 633.2 0C598 0 563 0 527.8 0C492.7 0 457.3 0 422.2 0C387 0 352 0 316.8 0C281.7 0 246.3 0 211.2 0C176 0 141 0 105.8 0C70.7 0 35.3 0 17.7 0L0 0Z" fill="#c62368"></path></svg>